<svg width="659" height="516" viewBox="0 0 659 516" fill="none" xmlns="http://www.w3.org/2000/svg">
<rect x="114" y="98" width="358" height="358" rx="22" fill="#D9D9D9"/>
<circle cx="367" cy="332" r="134" fill="#111111"/>
<circle class="path" cx="367" cy="332" r="133.5" stroke="#FFB700" stroke-opacity="0.5"/>
<line class="path" y1="97.5" x2="659" y2="97.5" stroke="#FFB700" stroke-opacity="0.5"/>
<line class="path" y1="141.5" x2="659" y2="141.5" stroke="#FFB700" stroke-opacity="0.5"/>
<line class="path" y1="411.5" x2="659" y2="411.5" stroke="#FFB700" stroke-opacity="0.5"/>
<line class="path" y1="455.5" x2="659" y2="455.5" stroke="#FFB700" stroke-opacity="0.5"/>
<line class="path" x1="113.5" y1="516" x2="113.5" y2="-3.02792e-05" stroke="#FFB700" stroke-opacity="0.5"/>
<line class="path" x1="157.5" y1="516" x2="157.5" y2="-3.02792e-05" stroke="#FFB700" stroke-opacity="0.5"/>
<line class="path" x1="427.5" y1="516" x2="427.5" y2="-3.02792e-05" stroke="#FFB700" stroke-opacity="0.5"/>
<line class="path" x1="471.5" y1="516" x2="471.5" y2="-3.02792e-05" stroke="#FFB700" stroke-opacity="0.5"/>
<line class="path" x1="500.5" y1="516" x2="500.5" y2="-3.02792e-05" stroke="#FFB700" stroke-opacity="0.5"/>
<line class="path" x1="520.63" y1="504.337" x2="54.6465" y2="38.3536" stroke="#FFB700" stroke-opacity="0.5"/>
<rect class="path" x="114.5" y="98.5" width="43" height="43" rx="21.5" stroke="#FFB700" stroke-opacity="0.5"/>
<rect class="path" x="428.5" y="412.5" width="43" height="43" rx="21.5" stroke="#FFB700" stroke-opacity="0.5"/>
<rect class="path" x="114.5" y="412.5" width="43" height="43" rx="21.5" stroke="#FFB700" stroke-opacity="0.5"/>
<rect class="path" x="428.5" y="98.5" width="43" height="43" rx="21.5" stroke="#FFB700" stroke-opacity="0.5"/>
</svg>
