<svg width="387" height="402" viewBox="0 0 387 402" fill="none" xmlns="http://www.w3.org/2000/svg">
<rect y="34" width="358" height="358" rx="22" fill="#D9D9D9"/>
<circle cx="253" cy="268" r="134" fill="#1E1E1E"/>
<path d="M238.233 13V2.81818H241.673C242.469 2.81818 243.122 2.95407 243.632 3.22585C244.143 3.49432 244.52 3.86387 244.766 4.33452C245.011 4.80516 245.134 5.34044 245.134 5.94034C245.134 6.54025 245.011 7.07221 244.766 7.53622C244.52 8.00024 244.144 8.36482 243.637 8.62997C243.13 8.89181 242.482 9.02273 241.693 9.02273H238.909V7.90909H241.653C242.197 7.90909 242.634 7.82955 242.966 7.67045C243.301 7.51136 243.543 7.28598 243.692 6.99432C243.844 6.69934 243.92 6.34801 243.92 5.94034C243.92 5.53267 243.844 5.17637 243.692 4.87145C243.539 4.56652 243.296 4.3312 242.961 4.16548C242.626 3.99645 242.184 3.91193 241.634 3.91193H239.466V13H238.233ZM243.026 8.42614L245.531 13H244.099L241.634 8.42614H243.026ZM249.276 13.179C248.792 13.179 248.353 13.0878 247.959 12.9055C247.564 12.7199 247.251 12.4531 247.019 12.1051C246.787 11.7538 246.671 11.3295 246.671 10.8324C246.671 10.3949 246.757 10.0402 246.93 9.76847C247.102 9.49337 247.332 9.27794 247.621 9.12216C247.909 8.96638 248.227 8.85038 248.575 8.77415C248.926 8.6946 249.279 8.63163 249.634 8.58523C250.098 8.52557 250.474 8.48082 250.763 8.45099C251.054 8.41785 251.266 8.36316 251.399 8.28693C251.535 8.2107 251.603 8.07812 251.603 7.8892V7.84943C251.603 7.3589 251.469 6.97775 251.2 6.70597C250.935 6.43419 250.532 6.2983 249.992 6.2983C249.432 6.2983 248.993 6.42093 248.675 6.66619C248.356 6.91146 248.133 7.1733 248.003 7.4517L246.89 7.05398C247.089 6.58996 247.354 6.22869 247.685 5.97017C248.02 5.70833 248.385 5.52604 248.779 5.4233C249.177 5.31723 249.568 5.2642 249.952 5.2642C250.198 5.2642 250.479 5.29403 250.797 5.35369C251.119 5.41004 251.429 5.5277 251.727 5.70668C252.029 5.88565 252.279 6.15578 252.478 6.51705C252.677 6.87831 252.776 7.36222 252.776 7.96875V13H251.603V11.9659H251.543C251.464 12.1316 251.331 12.3089 251.145 12.4979C250.96 12.6868 250.713 12.8475 250.405 12.9801C250.096 13.1127 249.72 13.179 249.276 13.179ZM249.455 12.125C249.919 12.125 250.31 12.0339 250.628 11.8516C250.95 11.6693 251.192 11.4339 251.354 11.1456C251.52 10.8572 251.603 10.554 251.603 10.2358V9.16193C251.553 9.22159 251.444 9.27628 251.275 9.32599C251.109 9.3724 250.917 9.41383 250.698 9.45028C250.483 9.48343 250.272 9.51326 250.067 9.53977C249.864 9.56297 249.7 9.58286 249.574 9.59943C249.269 9.6392 248.984 9.70384 248.719 9.79332C248.457 9.8795 248.245 10.0104 248.083 10.1861C247.924 10.3584 247.844 10.5937 247.844 10.892C247.844 11.2997 247.995 11.608 248.297 11.8168C248.602 12.0223 248.988 12.125 249.455 12.125ZM258.318 5.36364V6.35795H254.202V5.36364H258.318ZM255.435 13V4.30966C255.435 3.87216 255.537 3.50758 255.743 3.21591C255.948 2.92424 256.215 2.70549 256.543 2.55966C256.871 2.41383 257.218 2.34091 257.582 2.34091C257.871 2.34091 258.106 2.36411 258.288 2.41051C258.471 2.45691 258.607 2.5 258.696 2.53977L258.358 3.55398C258.298 3.53409 258.215 3.50923 258.109 3.4794C258.007 3.44957 257.871 3.43466 257.702 3.43466C257.314 3.43466 257.034 3.53243 256.862 3.72798C256.692 3.92353 256.608 4.21023 256.608 4.58807V13H255.435ZM263.363 5.36364V6.35795H259.247V5.36364H263.363ZM260.48 13V4.30966C260.48 3.87216 260.582 3.50758 260.788 3.21591C260.993 2.92424 261.26 2.70549 261.588 2.55966C261.916 2.41383 262.263 2.34091 262.627 2.34091C262.916 2.34091 263.151 2.36411 263.333 2.41051C263.516 2.45691 263.651 2.5 263.741 2.53977L263.403 3.55398C263.343 3.53409 263.26 3.50923 263.154 3.4794C263.052 3.44957 262.916 3.43466 262.747 3.43466C262.359 3.43466 262.079 3.53243 261.906 3.72798C261.737 3.92353 261.653 4.21023 261.653 4.58807V13H260.48ZM267.036 13.179C266.552 13.179 266.113 13.0878 265.718 12.9055C265.324 12.7199 265.011 12.4531 264.779 12.1051C264.547 11.7538 264.431 11.3295 264.431 10.8324C264.431 10.3949 264.517 10.0402 264.689 9.76847C264.862 9.49337 265.092 9.27794 265.38 9.12216C265.669 8.96638 265.987 8.85038 266.335 8.77415C266.686 8.6946 267.039 8.63163 267.394 8.58523C267.858 8.52557 268.234 8.48082 268.522 8.45099C268.814 8.41785 269.026 8.36316 269.159 8.28693C269.295 8.2107 269.363 8.07812 269.363 7.8892V7.84943C269.363 7.3589 269.228 6.97775 268.96 6.70597C268.695 6.43419 268.292 6.2983 267.752 6.2983C267.192 6.2983 266.752 6.42093 266.434 6.66619C266.116 6.91146 265.892 7.1733 265.763 7.4517L264.65 7.05398C264.848 6.58996 265.114 6.22869 265.445 5.97017C265.78 5.70833 266.144 5.52604 266.539 5.4233C266.936 5.31723 267.328 5.2642 267.712 5.2642C267.957 5.2642 268.239 5.29403 268.557 5.35369C268.879 5.41004 269.189 5.5277 269.487 5.70668C269.788 5.88565 270.039 6.15578 270.238 6.51705C270.436 6.87831 270.536 7.36222 270.536 7.96875V13H269.363V11.9659H269.303C269.223 12.1316 269.091 12.3089 268.905 12.4979C268.72 12.6868 268.473 12.8475 268.164 12.9801C267.856 13.1127 267.48 13.179 267.036 13.179ZM267.215 12.125C267.679 12.125 268.07 12.0339 268.388 11.8516C268.71 11.6693 268.952 11.4339 269.114 11.1456C269.28 10.8572 269.363 10.554 269.363 10.2358V9.16193C269.313 9.22159 269.203 9.27628 269.034 9.32599C268.869 9.3724 268.676 9.41383 268.458 9.45028C268.242 9.48343 268.032 9.51326 267.826 9.53977C267.624 9.56297 267.46 9.58286 267.334 9.59943C267.029 9.6392 266.744 9.70384 266.479 9.79332C266.217 9.8795 266.005 10.0104 265.843 10.1861C265.684 10.3584 265.604 10.5937 265.604 10.892C265.604 11.2997 265.755 11.608 266.056 11.8168C266.361 12.0223 266.748 12.125 267.215 12.125ZM275.879 13.1591C275.143 13.1591 274.509 12.9967 273.975 12.6719C273.445 12.3438 273.035 11.8864 272.747 11.2997C272.462 10.7098 272.319 10.0237 272.319 9.24148C272.319 8.45928 272.462 7.76989 272.747 7.1733C273.035 6.57339 273.436 6.10606 273.95 5.77131C274.467 5.43324 275.07 5.2642 275.76 5.2642C276.157 5.2642 276.55 5.33049 276.938 5.46307C277.326 5.59564 277.679 5.81108 277.997 6.10938C278.315 6.40436 278.569 6.79545 278.758 7.28267C278.947 7.76989 279.041 8.36979 279.041 9.08239V9.57955H273.155V8.56534H277.848C277.848 8.13447 277.762 7.75 277.589 7.41193C277.42 7.07386 277.178 6.80705 276.863 6.61151C276.552 6.41596 276.184 6.31818 275.76 6.31818C275.292 6.31818 274.888 6.43419 274.547 6.66619C274.209 6.89489 273.948 7.19318 273.766 7.56108C273.584 7.92898 273.493 8.32339 273.493 8.74432V9.42045C273.493 9.99716 273.592 10.486 273.791 10.8871C273.993 11.2848 274.273 11.5881 274.631 11.7969C274.989 12.0024 275.405 12.1051 275.879 12.1051C276.187 12.1051 276.466 12.062 276.714 11.9759C276.966 11.8864 277.183 11.7538 277.366 11.5781C277.548 11.3991 277.689 11.1771 277.788 10.9119L278.922 11.2301C278.802 11.6146 278.602 11.9527 278.32 12.2443C278.038 12.5327 277.69 12.758 277.276 12.9205C276.862 13.0795 276.396 13.1591 275.879 13.1591ZM281.999 2.81818V13H280.826V2.81818H281.999ZM287.35 13.1591C286.614 13.1591 285.979 12.9967 285.446 12.6719C284.915 12.3438 284.506 11.8864 284.218 11.2997C283.933 10.7098 283.79 10.0237 283.79 9.24148C283.79 8.45928 283.933 7.76989 284.218 7.1733C284.506 6.57339 284.907 6.10606 285.421 5.77131C285.938 5.43324 286.541 5.2642 287.23 5.2642C287.628 5.2642 288.021 5.33049 288.409 5.46307C288.797 5.59564 289.15 5.81108 289.468 6.10938C289.786 6.40436 290.039 6.79545 290.228 7.28267C290.417 7.76989 290.512 8.36979 290.512 9.08239V9.57955H284.625V8.56534H289.319C289.319 8.13447 289.232 7.75 289.06 7.41193C288.891 7.07386 288.649 6.80705 288.334 6.61151C288.023 6.41596 287.655 6.31818 287.23 6.31818C286.763 6.31818 286.359 6.43419 286.017 6.66619C285.679 6.89489 285.419 7.19318 285.237 7.56108C285.055 7.92898 284.963 8.32339 284.963 8.74432V9.42045C284.963 9.99716 285.063 10.486 285.262 10.8871C285.464 11.2848 285.744 11.5881 286.102 11.7969C286.46 12.0024 286.876 12.1051 287.35 12.1051C287.658 12.1051 287.936 12.062 288.185 11.9759C288.437 11.8864 288.654 11.7538 288.836 11.5781C289.019 11.3991 289.159 11.1771 289.259 10.9119L290.392 11.2301C290.273 11.6146 290.073 11.9527 289.791 12.2443C289.509 12.5327 289.161 12.758 288.747 12.9205C288.333 13.0795 287.867 13.1591 287.35 13.1591ZM304.586 6H303.353C303.28 5.64536 303.153 5.33381 302.971 5.06534C302.792 4.79688 302.573 4.5715 302.314 4.3892C302.059 4.2036 301.776 4.06439 301.464 3.97159C301.153 3.87879 300.828 3.83239 300.49 3.83239C299.873 3.83239 299.315 3.98816 298.814 4.29972C298.317 4.61127 297.921 5.07031 297.626 5.67685C297.334 6.28338 297.189 7.02746 297.189 7.90909C297.189 8.79072 297.334 9.5348 297.626 10.1413C297.921 10.7479 298.317 11.2069 298.814 11.5185C299.315 11.83 299.873 11.9858 300.49 11.9858C300.828 11.9858 301.153 11.9394 301.464 11.8466C301.776 11.7538 302.059 11.6162 302.314 11.4339C302.573 11.2483 302.792 11.0213 302.971 10.7528C303.153 10.4811 303.28 10.1695 303.353 9.81818H304.586C304.493 10.3385 304.324 10.8042 304.079 11.2152C303.834 11.6262 303.529 11.9759 303.164 12.2642C302.8 12.5492 302.391 12.7663 301.936 12.9155C301.486 13.0646 301.003 13.1392 300.49 13.1392C299.621 13.1392 298.849 12.9271 298.173 12.5028C297.497 12.0786 296.965 11.4754 296.577 10.6932C296.189 9.91098 295.995 8.98295 295.995 7.90909C295.995 6.83523 296.189 5.9072 296.577 5.125C296.965 4.3428 297.497 3.73958 298.173 3.31534C298.849 2.8911 299.621 2.67898 300.49 2.67898C301.003 2.67898 301.486 2.75355 301.936 2.9027C302.391 3.05185 302.8 3.2706 303.164 3.55895C303.529 3.84399 303.834 4.192 304.079 4.60298C304.324 5.01065 304.493 5.47633 304.586 6ZM306.42 13V5.36364H307.553V6.51705H307.633C307.772 6.1392 308.024 5.83262 308.388 5.5973C308.753 5.36198 309.164 5.24432 309.621 5.24432C309.707 5.24432 309.815 5.24597 309.944 5.24929C310.074 5.2526 310.171 5.25758 310.238 5.2642V6.45739C310.198 6.44744 310.107 6.43253 309.964 6.41264C309.825 6.38944 309.678 6.37784 309.522 6.37784C309.151 6.37784 308.819 6.45573 308.528 6.61151C308.239 6.76397 308.01 6.97609 307.841 7.24787C307.676 7.51634 307.593 7.82292 307.593 8.16761V13H306.42ZM314.498 13.1591C313.809 13.1591 313.204 12.995 312.684 12.6669C312.167 12.3388 311.762 11.8797 311.471 11.2898C311.182 10.6998 311.038 10.0104 311.038 9.22159C311.038 8.42614 311.182 7.73177 311.471 7.13849C311.762 6.54522 312.167 6.08452 312.684 5.75639C313.204 5.42827 313.809 5.2642 314.498 5.2642C315.188 5.2642 315.791 5.42827 316.308 5.75639C316.828 6.08452 317.233 6.54522 317.521 7.13849C317.813 7.73177 317.959 8.42614 317.959 9.22159C317.959 10.0104 317.813 10.6998 317.521 11.2898C317.233 11.8797 316.828 12.3388 316.308 12.6669C315.791 12.995 315.188 13.1591 314.498 13.1591ZM314.498 12.1051C315.022 12.1051 315.453 11.9709 315.791 11.7024C316.129 11.4339 316.379 11.081 316.542 10.6435C316.704 10.206 316.785 9.73201 316.785 9.22159C316.785 8.71117 316.704 8.23556 316.542 7.79474C316.379 7.35393 316.129 6.99763 315.791 6.72585C315.453 6.45407 315.022 6.31818 314.498 6.31818C313.975 6.31818 313.544 6.45407 313.206 6.72585C312.868 6.99763 312.617 7.35393 312.455 7.79474C312.293 8.23556 312.211 8.71117 312.211 9.22159C312.211 9.73201 312.293 10.206 312.455 10.6435C312.617 11.081 312.868 11.4339 313.206 11.7024C313.544 11.9709 313.975 12.1051 314.498 12.1051ZM322.852 13.1591C322.136 13.1591 321.52 12.9901 321.002 12.652C320.485 12.3139 320.088 11.8482 319.809 11.255C319.531 10.6617 319.392 9.9839 319.392 9.22159C319.392 8.44602 319.534 7.7616 319.819 7.16832C320.108 6.57173 320.509 6.10606 321.022 5.77131C321.539 5.43324 322.143 5.2642 322.832 5.2642C323.369 5.2642 323.853 5.36364 324.284 5.5625C324.715 5.76136 325.068 6.03977 325.343 6.39773C325.618 6.75568 325.788 7.1733 325.855 7.65057H324.681C324.592 7.30256 324.393 6.99432 324.085 6.72585C323.78 6.45407 323.369 6.31818 322.852 6.31818C322.395 6.31818 321.993 6.4375 321.649 6.67614C321.307 6.91146 321.041 7.24455 320.848 7.67543C320.659 8.10298 320.565 8.60511 320.565 9.18182C320.565 9.77178 320.658 10.2855 320.843 10.723C321.032 11.1605 321.297 11.5002 321.639 11.7422C321.984 11.9841 322.388 12.1051 322.852 12.1051C323.157 12.1051 323.434 12.0521 323.682 11.946C323.931 11.84 324.141 11.6875 324.314 11.4886C324.486 11.2898 324.609 11.0511 324.681 10.7727H325.855C325.788 11.2235 325.624 11.6295 325.363 11.9908C325.104 12.3487 324.761 12.6338 324.333 12.8459C323.909 13.0547 323.415 13.1591 322.852 13.1591ZM330.672 13.1591C329.956 13.1591 329.34 12.9901 328.823 12.652C328.306 12.3139 327.908 11.8482 327.63 11.255C327.351 10.6617 327.212 9.9839 327.212 9.22159C327.212 8.44602 327.355 7.7616 327.64 7.16832C327.928 6.57173 328.329 6.10606 328.843 5.77131C329.36 5.43324 329.963 5.2642 330.652 5.2642C331.189 5.2642 331.673 5.36364 332.104 5.5625C332.535 5.76136 332.888 6.03977 333.163 6.39773C333.438 6.75568 333.609 7.1733 333.675 7.65057H332.502C332.412 7.30256 332.213 6.99432 331.905 6.72585C331.6 6.45407 331.189 6.31818 330.672 6.31818C330.215 6.31818 329.814 6.4375 329.469 6.67614C329.128 6.91146 328.861 7.24455 328.669 7.67543C328.48 8.10298 328.385 8.60511 328.385 9.18182C328.385 9.77178 328.478 10.2855 328.664 10.723C328.853 11.1605 329.118 11.5002 329.459 11.7422C329.804 11.9841 330.208 12.1051 330.672 12.1051C330.977 12.1051 331.254 12.0521 331.502 11.946C331.751 11.84 331.962 11.6875 332.134 11.4886C332.306 11.2898 332.429 11.0511 332.502 10.7727H333.675C333.609 11.2235 333.445 11.6295 333.183 11.9908C332.924 12.3487 332.581 12.6338 332.154 12.8459C331.73 13.0547 331.236 13.1591 330.672 13.1591ZM338.493 13.1591C337.803 13.1591 337.198 12.995 336.678 12.6669C336.161 12.3388 335.757 11.8797 335.465 11.2898C335.176 10.6998 335.032 10.0104 335.032 9.22159C335.032 8.42614 335.176 7.73177 335.465 7.13849C335.757 6.54522 336.161 6.08452 336.678 5.75639C337.198 5.42827 337.803 5.2642 338.493 5.2642C339.182 5.2642 339.785 5.42827 340.302 5.75639C340.823 6.08452 341.227 6.54522 341.515 7.13849C341.807 7.73177 341.953 8.42614 341.953 9.22159C341.953 10.0104 341.807 10.6998 341.515 11.2898C341.227 11.8797 340.823 12.3388 340.302 12.6669C339.785 12.995 339.182 13.1591 338.493 13.1591ZM338.493 12.1051C339.016 12.1051 339.447 11.9709 339.785 11.7024C340.123 11.4339 340.373 11.081 340.536 10.6435C340.698 10.206 340.779 9.73201 340.779 9.22159C340.779 8.71117 340.698 8.23556 340.536 7.79474C340.373 7.35393 340.123 6.99763 339.785 6.72585C339.447 6.45407 339.016 6.31818 338.493 6.31818C337.969 6.31818 337.538 6.45407 337.2 6.72585C336.862 6.99763 336.612 7.35393 336.449 7.79474C336.287 8.23556 336.206 8.71117 336.206 9.22159C336.206 9.73201 336.287 10.206 336.449 10.6435C336.612 11.081 336.862 11.4339 337.2 11.7024C337.538 11.9709 337.969 12.1051 338.493 12.1051Z" fill="#D9D9D9"/>
</svg>
